<?xml version="1.0" encoding="UTF-8" standalone="no"?><!DOCTYPE svg PUBLIC "-//W3C//DTD SVG 1.1//EN" "http://www.w3.org/Graphics/SVG/1.1/DTD/svg11.dtd"><!-- Generated by graphviz version 2.40.1 (20161225.0304)
 --><!-- Title: G Pages: 1 --><svg xmlns="http://www.w3.org/2000/svg" xmlns:xlink="http://www.w3.org/1999/xlink" width="411pt" height="483pt" viewBox="0.00 0.00 410.76 482.60">
<g id="graph0" class="graph" transform="scale(1 1) rotate(0) translate(4 478.6)">
<title>G</title>
<polygon fill="#ffffff" stroke="transparent" points="-4,4 -4,-478.6 406.7559,-478.6 406.7559,4 -4,4"/>
<!-- GS -->
<g id="node1" class="node">
<title>GS</title>
<path fill="#edf8ff" stroke="#00598b" d="M268.6311,-360.5C268.6311,-360.5 388.6311,-360.5 388.6311,-360.5 394.6311,-360.5 400.6311,-366.5 400.6311,-372.5 400.6311,-372.5 400.6311,-390.1 400.6311,-390.1 400.6311,-396.1 394.6311,-402.1 388.6311,-402.1 388.6311,-402.1 268.6311,-402.1 268.6311,-402.1 262.6311,-402.1 256.6311,-396.1 256.6311,-390.1 256.6311,-390.1 256.6311,-372.5 256.6311,-372.5 256.6311,-366.5 262.6311,-360.5 268.6311,-360.5"/>
<text text-anchor="middle" x="328.366" y="-385.5" font-family="Helvetica,sans-Serif" font-size="14.00" fill="#000000">Google Scholar</text>
<text text-anchor="middle" x="328.366" y="-368.7" font-family="Helvetica,sans-Serif" font-size="14.00" fill="#000000">(n = 14)</text>
</g>
<!-- TT -->
<g id="node4" class="node">
<title>TT</title>
<path fill="#edf8ff" stroke="#00598b" d="M16.6311,-360.5C16.6311,-360.5 208.6311,-360.5 208.6311,-360.5 214.6311,-360.5 220.6311,-366.5 220.6311,-372.5 220.6311,-372.5 220.6311,-390.1 220.6311,-390.1 220.6311,-396.1 214.6311,-402.1 208.6311,-402.1 208.6311,-402.1 16.6311,-402.1 16.6311,-402.1 10.6311,-402.1 4.6311,-396.1 4.6311,-390.1 4.6311,-390.1 4.6311,-372.5 4.6311,-372.5 4.6311,-366.5 10.6311,-360.5 16.6311,-360.5"/>
<text text-anchor="middle" x="112.4684" y="-385.5" font-family="Helvetica,sans-Serif" font-size="14.00" fill="#000000">Total records</text>
<text text-anchor="middle" x="112.4684" y="-368.7" font-family="Helvetica,sans-Serif" font-size="14.00" fill="#000000">(n = 2096)</text>
</g>
<!-- GS&#45;&gt;TT -->
<g id="edge1" class="edge">
<title>GS-&gt;TT</title>
<path fill="none" stroke="#000000" d="M256.4059,-381.3C248.2081,-381.3 239.7002,-381.3 231.103,-381.3"/>
<polygon fill="#000000" stroke="#000000" points="230.9828,-377.8001 220.9827,-381.3 230.9827,-384.8001 230.9828,-377.8001"/>
</g>
<!-- SC -->
<g id="node2" class="node">
<title>SC</title>
<path fill="#edf8ff" stroke="#00598b" d="M12.5361,-432.5C12.5361,-432.5 68.7261,-432.5 68.7261,-432.5 74.7261,-432.5 80.7261,-438.5 80.7261,-444.5 80.7261,-444.5 80.7261,-462.1 80.7261,-462.1 80.7261,-468.1 74.7261,-474.1 68.7261,-474.1 68.7261,-474.1 12.5361,-474.1 12.5361,-474.1 6.5361,-474.1 .5361,-468.1 .5361,-462.1 .5361,-462.1 .5361,-444.5 .5361,-444.5 .5361,-438.5 6.5361,-432.5 12.5361,-432.5"/>
<text text-anchor="middle" x="40.6311" y="-457.5" font-family="Helvetica,sans-Serif" font-size="14.00" fill="#000000">Scopus</text>
<text text-anchor="middle" x="40.6311" y="-440.7" font-family="Helvetica,sans-Serif" font-size="14.00" fill="#000000">(n = 1293)</text>
</g>
<!-- SC&#45;&gt;TT -->
<g id="edge2" class="edge">
<title>SC-&gt;TT</title>
<path fill="none" stroke="#000000" d="M61.4565,-432.4746C68.5584,-425.3727 76.6248,-417.3063 84.2192,-409.7119"/>
<polygon fill="#000000" stroke="#000000" points="87.0069,-411.874 91.6031,-402.328 82.0571,-406.9242 87.0069,-411.874"/>
</g>
<!-- WS -->
<g id="node3" class="node">
<title>WS</title>
<path fill="#edf8ff" stroke="#00598b" d="M118.0185,-432.5C118.0185,-432.5 208.0437,-432.5 208.0437,-432.5 214.0437,-432.5 220.0437,-438.5 220.0437,-444.5 220.0437,-444.5 220.0437,-462.1 220.0437,-462.1 220.0437,-468.1 214.0437,-474.1 208.0437,-474.1 208.0437,-474.1 118.0185,-474.1 118.0185,-474.1 112.0185,-474.1 106.0185,-468.1 106.0185,-462.1 106.0185,-462.1 106.0185,-444.5 106.0185,-444.5 106.0185,-438.5 112.0185,-432.5 118.0185,-432.5"/>
<text text-anchor="middle" x="163.0311" y="-457.5" font-family="Helvetica,sans-Serif" font-size="14.00" fill="#000000">Web of Science</text>
<text text-anchor="middle" x="163.0311" y="-440.7" font-family="Helvetica,sans-Serif" font-size="14.00" fill="#000000">(n = 789)</text>
</g>
<!-- WS&#45;&gt;TT -->
<g id="edge3" class="edge">
<title>WS-&gt;TT</title>
<path fill="none" stroke="#000000" d="M148.4533,-432.4746C143.6891,-425.6686 138.3049,-417.9768 133.1856,-410.6635"/>
<polygon fill="#000000" stroke="#000000" points="135.9527,-408.5132 127.3507,-402.328 130.2181,-412.5275 135.9527,-408.5132"/>
</g>
<!-- radr -->
<g id="node5" class="node">
<title>radr</title>
<path fill="#fff7e6" stroke="#e69f00" d="M12,-288.5C12,-288.5 213.2622,-288.5 213.2622,-288.5 219.2622,-288.5 225.2622,-294.5 225.2622,-300.5 225.2622,-300.5 225.2622,-318.1 225.2622,-318.1 225.2622,-324.1 219.2622,-330.1 213.2622,-330.1 213.2622,-330.1 12,-330.1 12,-330.1 6,-330.1 0,-324.1 0,-318.1 0,-318.1 0,-300.5 0,-300.5 0,-294.5 6,-288.5 12,-288.5"/>
<text text-anchor="middle" x="112.6311" y="-313.5" font-family="Helvetica,sans-Serif" font-size="14.00" fill="#000000">Records after duplicates removed</text>
<text text-anchor="middle" x="112.6311" y="-296.7" font-family="Helvetica,sans-Serif" font-size="14.00" fill="#000000">(n = 1455)</text>
</g>
<!-- TT&#45;&gt;radr -->
<g id="edge4" class="edge">
<title>TT-&gt;radr</title>
<path fill="none" stroke="#000000" d="M112.6311,-360.4746C112.6311,-354.2604 112.6311,-347.3078 112.6311,-340.5791"/>
<polygon fill="#000000" stroke="#000000" points="116.1312,-340.328 112.6311,-330.328 109.1312,-340.3281 116.1312,-340.328"/>
</g>
<!-- rats -->
<g id="node6" class="node">
<title>rats</title>
<path fill="#fff7e6" stroke="#e69f00" d="M16.6311,-208.1C16.6311,-208.1 208.6311,-208.1 208.6311,-208.1 214.6311,-208.1 220.6311,-214.1 220.6311,-220.1 220.6311,-220.1 220.6311,-254.5 220.6311,-254.5 220.6311,-260.5 214.6311,-266.5 208.6311,-266.5 208.6311,-266.5 16.6311,-266.5 16.6311,-266.5 10.6311,-266.5 4.6311,-260.5 4.6311,-254.5 4.6311,-254.5 4.6311,-220.1 4.6311,-220.1 4.6311,-214.1 10.6311,-208.1 16.6311,-208.1"/>
<text text-anchor="middle" x="112.4305" y="-249.9" font-family="Helvetica,sans-Serif" font-size="14.00" fill="#000000">Records after title and abstract</text>
<text text-anchor="middle" x="112.4305" y="-233.1" font-family="Helvetica,sans-Serif" font-size="14.00" fill="#000000">screening</text>
<text text-anchor="middle" x="112.4305" y="-216.3" font-family="Helvetica,sans-Serif" font-size="14.00" fill="#000000">(n = 190)</text>
</g>
<!-- radr&#45;&gt;rats -->
<g id="edge5" class="edge">
<title>radr-&gt;rats</title>
<path fill="none" stroke="#000000" d="M112.6311,-288.4746C112.6311,-284.7497 112.6311,-280.7595 112.6311,-276.7113"/>
<polygon fill="#000000" stroke="#000000" points="116.1312,-276.6468 112.6311,-266.6468 109.1312,-276.6468 116.1312,-276.6468"/>
</g>
<!-- dups -->
<g id="node10" class="node">
<title>dups</title>
<path fill="#f7ebf2" stroke="#a43f77" d="M268.6311,-288.5C268.6311,-288.5 388.6311,-288.5 388.6311,-288.5 394.6311,-288.5 400.6311,-294.5 400.6311,-300.5 400.6311,-300.5 400.6311,-318.1 400.6311,-318.1 400.6311,-324.1 394.6311,-330.1 388.6311,-330.1 388.6311,-330.1 268.6311,-330.1 268.6311,-330.1 262.6311,-330.1 256.6311,-324.1 256.6311,-318.1 256.6311,-318.1 256.6311,-300.5 256.6311,-300.5 256.6311,-294.5 262.6311,-288.5 268.6311,-288.5"/>
<text text-anchor="middle" x="328.3716" y="-313.5" font-family="Helvetica,sans-Serif" font-size="14.00" fill="#000000">Excluded duplicates</text>
<text text-anchor="middle" x="328.3716" y="-296.7" font-family="Helvetica,sans-Serif" font-size="14.00" fill="#000000">(n = 641)</text>
</g>
<!-- radr&#45;&gt;dups -->
<g id="edge9" class="edge">
<title>radr-&gt;dups</title>
<path fill="none" stroke="#000000" d="M225.3758,-309.3C232.2901,-309.3 239.1783,-309.3 245.9269,-309.3"/>
<polygon fill="#000000" stroke="#000000" points="246.4007,-312.8001 256.4006,-309.3 246.4006,-305.8001 246.4007,-312.8001"/>
</g>
<!-- arft -->
<g id="node7" class="node">
<title>arft</title>
<path fill="#fff7e6" stroke="#e69f00" d="M16.6311,-144.5C16.6311,-144.5 208.6311,-144.5 208.6311,-144.5 214.6311,-144.5 220.6311,-150.5 220.6311,-156.5 220.6311,-156.5 220.6311,-174.1 220.6311,-174.1 220.6311,-180.1 214.6311,-186.1 208.6311,-186.1 208.6311,-186.1 16.6311,-186.1 16.6311,-186.1 10.6311,-186.1 4.6311,-180.1 4.6311,-174.1 4.6311,-174.1 4.6311,-156.5 4.6311,-156.5 4.6311,-150.5 10.6311,-144.5 16.6311,-144.5"/>
<text text-anchor="middle" x="112.5252" y="-169.5" font-family="Helvetica,sans-Serif" font-size="14.00" fill="#000000">Articles retrieved at full-text</text>
<text text-anchor="middle" x="112.5252" y="-152.7" font-family="Helvetica,sans-Serif" font-size="14.00" fill="#000000">(n = 184)</text>
</g>
<!-- rats&#45;&gt;arft -->
<g id="edge6" class="edge">
<title>rats-&gt;arft</title>
<path fill="none" stroke="#000000" d="M112.6311,-208.0148C112.6311,-204.1264 112.6311,-200.1297 112.6311,-196.2148"/>
<polygon fill="#000000" stroke="#000000" points="116.1312,-196.1737 112.6311,-186.1737 109.1312,-196.1738 116.1312,-196.1737"/>
</g>
<!-- exta -->
<g id="node11" class="node">
<title>exta</title>
<path fill="#f7ebf2" stroke="#a43f77" d="M268.6311,-208.1C268.6311,-208.1 388.6311,-208.1 388.6311,-208.1 394.6311,-208.1 400.6311,-214.1 400.6311,-220.1 400.6311,-220.1 400.6311,-254.5 400.6311,-254.5 400.6311,-260.5 394.6311,-266.5 388.6311,-266.5 388.6311,-266.5 268.6311,-266.5 268.6311,-266.5 262.6311,-266.5 256.6311,-260.5 256.6311,-254.5 256.6311,-254.5 256.6311,-220.1 256.6311,-220.1 256.6311,-214.1 262.6311,-208.1 268.6311,-208.1"/>
<text text-anchor="middle" x="328.3709" y="-249.9" font-family="Helvetica,sans-Serif" font-size="14.00" fill="#000000">Excluded titles and</text>
<text text-anchor="middle" x="328.3709" y="-233.1" font-family="Helvetica,sans-Serif" font-size="14.00" fill="#000000">abstracts</text>
<text text-anchor="middle" x="328.3709" y="-216.3" font-family="Helvetica,sans-Serif" font-size="14.00" fill="#000000">(n = 1265)</text>
</g>
<!-- rats&#45;&gt;exta -->
<g id="edge10" class="edge">
<title>rats-&gt;exta</title>
<path fill="none" stroke="#000000" d="M220.9475,-237.3C229.4787,-237.3 238.0072,-237.3 246.3202,-237.3"/>
<polygon fill="#000000" stroke="#000000" points="246.3391,-240.8001 256.339,-237.3 246.339,-233.8001 246.3391,-240.8001"/>
</g>
<!-- afts -->
<g id="node8" class="node">
<title>afts</title>
<path fill="#fff7e6" stroke="#e69f00" d="M16.6311,-72.5C16.6311,-72.5 208.6311,-72.5 208.6311,-72.5 214.6311,-72.5 220.6311,-78.5 220.6311,-84.5 220.6311,-84.5 220.6311,-102.1 220.6311,-102.1 220.6311,-108.1 214.6311,-114.1 208.6311,-114.1 208.6311,-114.1 16.6311,-114.1 16.6311,-114.1 10.6311,-114.1 4.6311,-108.1 4.6311,-102.1 4.6311,-102.1 4.6311,-84.5 4.6311,-84.5 4.6311,-78.5 10.6311,-72.5 16.6311,-72.5"/>
<text text-anchor="middle" x="112.3078" y="-97.5" font-family="Helvetica,sans-Serif" font-size="14.00" fill="#000000">Articles after full-text screening</text>
<text text-anchor="middle" x="112.3078" y="-80.7" font-family="Helvetica,sans-Serif" font-size="14.00" fill="#000000">(n = 3)</text>
</g>
<!-- arft&#45;&gt;afts -->
<g id="edge7" class="edge">
<title>arft-&gt;afts</title>
<path fill="none" stroke="#000000" d="M112.6311,-144.4746C112.6311,-138.2604 112.6311,-131.3078 112.6311,-124.5791"/>
<polygon fill="#000000" stroke="#000000" points="116.1312,-124.328 112.6311,-114.328 109.1312,-124.3281 116.1312,-124.328"/>
</g>
<!-- unft -->
<g id="node12" class="node">
<title>unft</title>
<path fill="#f7ebf2" stroke="#a43f77" d="M266.5168,-144.5C266.5168,-144.5 390.7454,-144.5 390.7454,-144.5 396.7454,-144.5 402.7454,-150.5 402.7454,-156.5 402.7454,-156.5 402.7454,-174.1 402.7454,-174.1 402.7454,-180.1 396.7454,-186.1 390.7454,-186.1 390.7454,-186.1 266.5168,-186.1 266.5168,-186.1 260.5168,-186.1 254.5168,-180.1 254.5168,-174.1 254.5168,-174.1 254.5168,-156.5 254.5168,-156.5 254.5168,-150.5 260.5168,-144.5 266.5168,-144.5"/>
<text text-anchor="middle" x="328.6311" y="-169.5" font-family="Helvetica,sans-Serif" font-size="14.00" fill="#000000">Unretrievable full-text</text>
<text text-anchor="middle" x="328.6311" y="-152.7" font-family="Helvetica,sans-Serif" font-size="14.00" fill="#000000">(n = 6)</text>
</g>
<!-- arft&#45;&gt;unft -->
<g id="edge11" class="edge">
<title>arft-&gt;unft</title>
<path fill="none" stroke="#000000" d="M220.9475,-165.3C228.6909,-165.3 236.4321,-165.3 244.0119,-165.3"/>
<polygon fill="#000000" stroke="#000000" points="244.233,-168.8001 254.233,-165.3 244.2329,-161.8001 244.233,-168.8001"/>
</g>
<!-- fsis -->
<g id="node9" class="node">
<title>fsis</title>
<path fill="#007756" stroke="#007756" d="M16.6311,-.5C16.6311,-.5 208.6311,-.5 208.6311,-.5 214.6311,-.5 220.6311,-6.5 220.6311,-12.5 220.6311,-12.5 220.6311,-30.1 220.6311,-30.1 220.6311,-36.1 214.6311,-42.1 208.6311,-42.1 208.6311,-42.1 16.6311,-42.1 16.6311,-42.1 10.6311,-42.1 4.6311,-36.1 4.6311,-30.1 4.6311,-30.1 4.6311,-12.5 4.6311,-12.5 4.6311,-6.5 10.6311,-.5 16.6311,-.5"/>
<text text-anchor="middle" x="112.4333" y="-25.5" font-family="Helvetica,sans-Serif" font-size="14.00" fill="#ecfffa">Studies included in synthesis </text>
<text text-anchor="middle" x="112.4333" y="-8.7" font-family="Helvetica,sans-Serif" font-size="14.00" fill="#ecfffa"> (n = 5)</text>
</g>
<!-- afts&#45;&gt;fsis -->
<g id="edge8" class="edge">
<title>afts-&gt;fsis</title>
<path fill="none" stroke="#000000" d="M112.6311,-72.4746C112.6311,-66.2604 112.6311,-59.3078 112.6311,-52.5791"/>
<polygon fill="#000000" stroke="#000000" points="116.1312,-52.328 112.6311,-42.328 109.1312,-52.3281 116.1312,-52.328"/>
</g>
<!-- exft -->
<g id="node13" class="node">
<title>exft</title>
<path fill="#f7ebf2" stroke="#a43f77" d="M268.6311,-72.5C268.6311,-72.5 388.6311,-72.5 388.6311,-72.5 394.6311,-72.5 400.6311,-78.5 400.6311,-84.5 400.6311,-84.5 400.6311,-102.1 400.6311,-102.1 400.6311,-108.1 394.6311,-114.1 388.6311,-114.1 388.6311,-114.1 268.6311,-114.1 268.6311,-114.1 262.6311,-114.1 256.6311,-108.1 256.6311,-102.1 256.6311,-102.1 256.6311,-84.5 256.6311,-84.5 256.6311,-78.5 262.6311,-72.5 268.6311,-72.5"/>
<text text-anchor="middle" x="328.4186" y="-97.5" font-family="Helvetica,sans-Serif" font-size="14.00" fill="#000000">Excluded full-text</text>
<text text-anchor="middle" x="328.4186" y="-80.7" font-family="Helvetica,sans-Serif" font-size="14.00" fill="#000000">(n = 181)</text>
</g>
<!-- afts&#45;&gt;exft -->
<g id="edge12" class="edge">
<title>afts-&gt;exft</title>
<path fill="none" stroke="#000000" d="M220.9475,-93.3C229.4787,-93.3 238.0072,-93.3 246.3202,-93.3"/>
<polygon fill="#000000" stroke="#000000" points="246.3391,-96.8001 256.339,-93.3 246.339,-89.8001 246.3391,-96.8001"/>
</g>
<!-- sfts -->
<g id="node14" class="node">
<title>sfts</title>
<path fill="#edf7f8" stroke="#007756" d="M266.5063,-.5C266.5063,-.5 390.7559,-.5 390.7559,-.5 396.7559,-.5 402.7559,-6.5 402.7559,-12.5 402.7559,-12.5 402.7559,-30.1 402.7559,-30.1 402.7559,-36.1 396.7559,-42.1 390.7559,-42.1 390.7559,-42.1 266.5063,-42.1 266.5063,-42.1 260.5063,-42.1 254.5063,-36.1 254.5063,-30.1 254.5063,-30.1 254.5063,-12.5 254.5063,-12.5 254.5063,-6.5 260.5063,-.5 266.5063,-.5"/>
<text text-anchor="middle" x="328.6311" y="-25.5" font-family="Helvetica,sans-Serif" font-size="14.00" fill="#000000">Pre-screened studies</text>
<text text-anchor="middle" x="328.6311" y="-8.7" font-family="Helvetica,sans-Serif" font-size="14.00" fill="#000000"> (n = 2)</text>
</g>
<!-- sfts&#45;&gt;fsis -->
<g id="edge13" class="edge">
<title>sfts-&gt;fsis</title>
<path fill="none" stroke="#000000" d="M254.2962,-21.3C246.6595,-21.3 238.7734,-21.3 230.8128,-21.3"/>
<polygon fill="#000000" stroke="#000000" points="230.7028,-17.8001 220.7028,-21.3 230.7028,-24.8001 230.7028,-17.8001"/>
</g>
</g>
</svg>